# xmcd
#
# Track frame offsets: 
#        150
#        23036
#        49688
#        63637
#        80384
#        95672
#        200028
#        219432
#        234952
#
# Disc length: 3359 seconds
#
# Revision: 2
# Processed by: cddbd v1.5.2PL0 Copyright (c) Steve Scherf et al.
# Submitted via: ExactAudioCopy v0.99pb4
#
DISCID=760d1d09
DTITLE=Canned Heat - Amphetamine Annie - Live In Oz [CD 1)
DYEAR=2005
DGENRE=Blues
TTITLE0=On The Road Again
TTITLE1=Amphetamine Annie
TTITLE2=Goin' Up Country
TTITLE3=Let's Work Together
TTITLE4=Kings Of The Boogie
TTITLE5=Refried Hockey Boogie
TTITLE6=Hell's Down The Line
TTITLE7=Chicken Shack Boogie
TTITLE8=So Long
EXTD=2 CD-Set: Ambitions "Canned Heat - Amphetamine Annie" © 2005\nCD 
EXTD=1: Original Album "Live In Oz" 1999\nCD 2: Original Sampler "On T
EXTD=he Road Again" 1989\nLabel: Eagle Rock - Membran\n223122-311\nADD
EXTD=High End Mastering 24 Bit - 96 Khz
EXTT0=
EXTT1=
EXTT2=
EXTT3=
EXTT4=
EXTT5=
EXTT6=
EXTT7=
EXTT8=
PLAYORDER=
